HIERARCHY
ROOT hip
{
  OFFSET 0 0 0
  CHANNELS 6 Xposition Yposition Zposition Zrotation Yrotation Xrotation
  JOINT abdomen
  {
    OFFSET 0 20.6881 -0.73152
    CHANNELS 3 Zrotation Xrotation Yrotation
    JOINT chest
    {
      OFFSET 0 11.7043 -0.48768
      CHANNELS 3 Zrotation Xrotation Yrotation
      JOINT neck
      {
        OFFSET 0 22.1894 -2.19456
        CHANNELS 3 Zrotation Xrotation Yrotation
        JOINT head
        {
          OFFSET -0.24384 7.07133 1.2192
          CHANNELS 3 Zrotation Xrotation Yrotation
          JOINT leftEye
          {
            OFFSET 4.14528 8.04674 8.04672
            CHANNELS 3 Zrotation Xrotation Yrotation
            End Site
            {
              OFFSET 1 0 0
            }
          }
          JOINT rightEye
          {
            OFFSET -3.6576 8.04674 8.04672
            CHANNELS 3 Zrotation Xrotation Yrotation
            End Site
            {
              OFFSET 1 0 0
            }
          }
        }
      }
      JOINT rCollar
      {
        OFFSET -2.68224 19.2634 -4.8768
        CHANNELS 3 Zrotation Xrotation Yrotation
        JOINT rShldr
        {
          OFFSET -8.77824 -1.95073 1.46304
          CHANNELS 3 Zrotation Xrotation Yrotation
          JOINT rForeArm
          {
            OFFSET -28.1742 -1.7115 0.48768
            CHANNELS 3 Zrotation Xrotation Yrotation
            JOINT rHand
            {
              OFFSET -22.5879 0.773209 7.07136
              CHANNELS 3 Zrotation Xrotation Yrotation
              JOINT rThumb1
              {
                OFFSET -1.2192 -0.487915 3.41376
                CHANNELS 3 Zrotation Xrotation Yrotation
                JOINT rThumb2
                {
                  OFFSET -3.37035 -0.52449 3.41376
                  CHANNELS 3 Zrotation Xrotation Yrotation
                  End Site
                  {
                    OFFSET -1.78271 -1.18214 1.43049
                  }
                }
              }
              JOINT rIndex1
              {
                OFFSET -7.75947 0.938293 5.60832
                CHANNELS 3 Zrotation Xrotation Yrotation
                JOINT rIndex2
                {
                  OFFSET -2.54057 -0.884171 1.56538
                  CHANNELS 3 Zrotation Xrotation Yrotation
                  End Site
                  {
                    OFFSET -1.62519 -0.234802 1.16502
                  }
                }
              }
              JOINT rMid1
              {
                OFFSET -8.24714 1.18213 3.41376
                CHANNELS 3 Zrotation Xrotation Yrotation
                JOINT rMid2
                {
                  OFFSET -3.10165 -0.590103 1.0647
                  CHANNELS 3 Zrotation Xrotation Yrotation
                  End Site
                  {
                    OFFSET -2.48547 -0.328903 0.83742
                  }
                }
              }
              JOINT rRing1
              {
                OFFSET -8.82822 0.546677 1.51678
                CHANNELS 3 Zrotation Xrotation Yrotation
                JOINT rRing2
                {
                  OFFSET -2.60934 -0.819778 -0.0198488
                  CHANNELS 3 Zrotation Xrotation Yrotation
                  End Site
                  {
                    OFFSET -2.33842 -0.294052 0.168128
                  }
                }
              }
              JOINT rPinky1
              {
                OFFSET -8.27202 -0.0477905 -0.4584
                CHANNELS 3 Zrotation Xrotation Yrotation
                JOINT rPinky2
                {
                  OFFSET -1.82734 -0.647385 -0.700984
                  CHANNELS 3 Zrotation Xrotation Yrotation
                  End Site
                  {
                    OFFSET -1.69225 -0.51767 -0.607171
                  }
                }
              }
            }
          }
        }
      }
      JOINT lCollar
      {
        OFFSET 2.68224 19.2634 -4.8768
        CHANNELS 3 Zrotation Xrotation Yrotation
        JOINT lShldr
        {
          OFFSET 8.77824 -1.95073 1.46304
          CHANNELS 3 Zrotation Xrotation Yrotation
          JOINT lForeArm
          {
            OFFSET 28.1742 -1.7115 0.48768
            CHANNELS 3 Zrotation Xrotation Yrotation
            JOINT lHand
            {
              OFFSET 22.5879 0.773209 7.07136
              CHANNELS 3 Zrotation Xrotation Yrotation
              JOINT lThumb1
              {
                OFFSET 1.2192 -0.487915 3.41376
                CHANNELS 3 Zrotation Xrotation Yrotation
                JOINT lThumb2
                {
                  OFFSET 3.37035 -0.52449 3.41376
                  CHANNELS 3 Zrotation Xrotation Yrotation
                  End Site
                  {
                    OFFSET 1.78271 -1.18214 1.43049
                  }
                }
              }
              JOINT lIndex1
              {
                OFFSET 7.75947 0.938293 5.60832
                CHANNELS 3 Zrotation Xrotation Yrotation
                JOINT lIndex2
                {
                  OFFSET 2.54057 -0.884171 1.56538
                  CHANNELS 3 Zrotation Xrotation Yrotation
                  End Site
                  {
                    OFFSET 1.62519 -0.234802 1.16502
                  }
                }
              }
              JOINT lMid1
              {
                OFFSET 8.24714 1.18213 3.41376
                CHANNELS 3 Zrotation Xrotation Yrotation
                JOINT lMid2
                {
                  OFFSET 3.10165 -0.590103 1.0647
                  CHANNELS 3 Zrotation Xrotation Yrotation
                  End Site
                  {
                    OFFSET 2.48547 -0.328903 0.83742
                  }
                }
              }
              JOINT lRing1
              {
                OFFSET 8.82822 0.546677 1.51678
                CHANNELS 3 Zrotation Xrotation Yrotation
                JOINT lRing2
                {
                  OFFSET 2.60934 -0.819778 -0.0198488
                  CHANNELS 3 Zrotation Xrotation Yrotation
                  End Site
                  {
                    OFFSET 2.33842 -0.294052 0.168128
                  }
                }
              }
              JOINT lPinky1
              {
                OFFSET 8.27202 -0.0477905 -0.4584
                CHANNELS 3 Zrotation Xrotation Yrotation
                JOINT lPinky2
                {
                  OFFSET 1.82734 -0.647385 -0.700984
                  CHANNELS 3 Zrotation Xrotation Yrotation
                  End Site
                  {
                    OFFSET 1.69225 -0.51767 -0.607171
                  }
                }
              }
            }
          }
        }
      }
    }
  }
  JOINT rButtock
  {
    OFFSET -8.77824 4.35084 1.2192
    CHANNELS 3 Zrotation Xrotation Yrotation
    JOINT rThigh
    {
      OFFSET 0 -1.70687 -2.19456
      CHANNELS 3 Zrotation Xrotation Yrotation
      JOINT rShin
      {
        OFFSET 0 -36.8199 0.73152
        CHANNELS 3 Zrotation Xrotation Yrotation
        JOINT rFoot
        {
          OFFSET 0.73152 -45.1104 -5.12064
          CHANNELS 3 Zrotation Xrotation Yrotation
          End Site
          {
            OFFSET -1.1221 -3.69964 12.103
          }
        }
      }
    }
  }
  JOINT lButtock
  {
    OFFSET 8.77824 4.35084 1.2192
    CHANNELS 3 Zrotation Xrotation Yrotation
    JOINT lThigh
    {
      OFFSET 0 -1.70687 -2.19456
      CHANNELS 3 Zrotation Xrotation Yrotation
      JOINT lShin
      {
        OFFSET 0 -36.8199 0.73152
        CHANNELS 3 Zrotation Xrotation Yrotation
        JOINT lFoot
        {
          OFFSET -0.73152 -45.1104 -5.12064
          CHANNELS 3 Zrotation Xrotation Yrotation
          End Site
          {
            OFFSET 1.1221 -3.69964 12.103
          }
        }
      }
    }
  }
}
MOTION
Frames:	4
Frame Time:	0.03333
-11.41273071989417 60.97188591957092 -25.194390676915646 -10.089892387390137 -51.64311981201172 14.238211631774902 1.5109984874725342 13.10981273651123 12.6117525100708 -0.7357179522514343 -12.294455528259277 3.243410110473633 -0.9872938394546509 13.089720726013184 7.299245834350586 6.694971084594727 -23.209421157836914 17.09933090209961 0.02487347461283207 0.09688298404216766 0.2828696370124817 -0.08839041739702225 0.4253922998905182 0.028463570401072502 0.14462828636169434 0.29717445373535156 -0.20804621279239655 67.64651489257812 81.42970275878906 -1.4075669050216675 -28.161401748657227 -44.06422424316406 90.01703643798828 -28.803630828857422 -76.87999725341797 -36.18729019165039 -0.23480874300003052 -0.29405662417411804 0.2717285752296448 -0.35743457078933716 0.15740500390529633 -0.061809007078409195 -0.5225064158439636 -0.005729224532842636 -0.13146713376045227 7.904112339019775 5.682851314544678 0.40836000442504883 -0.20374898612499237 -0.06422055512666702 -0.1257859766483307 3.1395137310028076 0.45571014285087585 0.3326358497142792 0.4601564407348633 0.4284481406211853 0.06323772668838501 10.207657814025879 0.6826443672180176 0.17575691640377045 0.3387654721736908 -0.11527127027511597 -0.5461694002151489 2.195694923400879 -1.232509970664978 -0.40441739559173584 -0.16163383424282074 -0.20177897810935974 0.2667785584926605 -65.8544921875 10.46731948852539 -35.3444709777832 27.93079376220703 -33.51517105102539 -73.58645629882812 -0.04084773734211922 19.622304916381836 -3.1762099266052246 0.20358197391033173 -0.26558589935302734 0.3789229094982147 -0.2430294007062912 0.04237119108438492 -0.3789173364639282 -0.3153173327445984 -0.3371683359146118 -0.03131801635026932 -7.78918981552124 5.387836933135986 0.0006468432839028537 0.0693620890378952 -0.09895683825016022 -0.13177087903022766 -2.6226983070373535 1.7713041305541992 -0.4839586317539215 -0.3121190369129181 -0.10807216167449951 0.11236152797937393 -9.949075698852539 0.34308305382728577 -0.0683872178196907 0.3436550199985504 0.572471022605896 -0.0056344191543757915 -2.5787813663482666 -0.8666946291923523 0.3649349808692932 -0.262614369392395 -0.6158717274665833 0.37278565764427185 -17.239791870117188 -27.604488372802734 -27.089122772216797 -2.0798614025115967 74.55313110351562 3.992617607116699 -8.809423446655273 -19.22344398498535 -19.265857696533203 -0.20674994587898254 -0.1777978092432022 0.125621035695076 64.51921844482422 -46.88875961303711 57.81429672241211 1.7142386436462402 71.03596496582031 -1.7468785047531128 0.7406210899353027 3.790498971939087 10.111030578613281
-11.221022065728903 60.82797646522522 -24.73125569522381 -9.647879600524902 -52.13443374633789 14.668540954589844 1.4317011833190918 13.013198852539062 12.561114311218262 -0.7101127505302429 -12.230923652648926 3.238147497177124 -1.03641676902771 13.097326278686523 7.270334720611572 6.7577290534973145 -23.189292907714844 16.95379638671875 0.006974067073315382 0.07343750447034836 0.2869252562522888 -0.10310276597738266 0.43472373485565186 0.005526668392121792 0.13205960392951965 0.29235541820526123 -0.19804497063159943 70.47377014160156 81.4475326538086 -4.418388366699219 -28.190492630004883 -43.969417572021484 89.81163787841797 -28.015581130981445 -76.6384048461914 -35.39857864379883 -0.23195727169513702 -0.3206709325313568 0.24662013351917267 -0.36300984025001526 0.18854175508022308 -0.08939842134714127 -0.4967688024044037 -0.031040742993354797 -0.11827947199344635 7.904080390930176 5.669703960418701 0.46026214957237244 -0.19441279768943787 -0.09947222471237183 -0.16049014031887054 3.1045100688934326 0.48320746421813965 0.306557834148407 0.38428324460983276 0.4424367845058441 0.06822698563337326 10.199525833129883 0.6916488409042358 0.18968921899795532 0.32769763469696045 -0.15002688765525818 -0.569415271282196 2.169661283493042 -1.2057360410690308 -0.3841513395309448 -0.13814552128314972 -0.20501257479190826 0.24469520151615143 -66.09996032714844 10.56956958770752 -34.826324462890625 27.87492561340332 -33.30120849609375 -73.25178527832031 -0.02753494307398796 19.81690788269043 -3.2533669471740723 0.19483695924282074 -0.2372547686100006 0.36587825417518616 -0.25185009837150574 -0.0058410377241671085 -0.3954980671405792 -0.28681322932243347 -0.3795470595359802 -0.031829334795475006 -7.788762092590332 5.403510093688965 0.00914075318723917 0.05636836588382721 -0.06250424683094025 -0.19557850062847137 -2.59928822517395 1.745713710784912 -0.528383195400238 -0.330994188785553 -0.09249597042798996 0.09532496333122253 -9.995231628417969 0.3551267981529236 -0.053716015070676804 0.3694045841693878 0.5846595168113708 0.00939243845641613 -2.615600109100342 -0.8717787265777588 0.32307520508766174 -0.2588452994823456 -0.6116030216217041 0.3980228900909424 -17.306819915771484 -27.72740936279297 -26.996498107910156 -1.973477840423584 74.55843353271484 3.884777069091797 -8.78271770477295 -19.299196243286133 -19.267663955688477 -0.18532373011112213 -0.17602874338626862 0.14383286237716675 64.13255310058594 -46.66710662841797 57.37708282470703 1.6718758344650269 70.6622314453125 -1.7061893939971924 0.7816145420074463 3.593322515487671 10.114401817321777
-11.042610835283995 60.776108503341675 -24.19541087001562 -10.418797492980957 -51.19589614868164 14.281622886657715 1.6502143144607544 13.212652206420898 12.662552833557129 -0.7745317816734314 -12.456304550170898 3.290102958679199 -1.0010874271392822 13.183046340942383 7.6447930335998535 6.825906276702881 -23.316892623901367 17.478548049926758 -0.08881212025880814 0.022884054109454155 0.2808525264263153 -0.09794653952121735 0.4494510889053345 -0.021646885201334953 0.16513532400131226 0.27201956510543823 -0.24044139683246613 75.91778564453125 82.41806030273438 -9.731471061706543 -27.91040802001953 -44.797096252441406 91.36498260498047 -31.48133659362793 -77.62522888183594 -38.95524597167969 -0.2581804394721985 -0.33679696917533875 0.26388663053512573 -0.3331788182258606 0.14774374663829803 -0.039675407111644745 -0.5121706128120422 -0.015061001293361187 -0.12785400450229645 7.9649505615234375 5.731107711791992 0.40826648473739624 -0.19803152978420258 -0.05580168962478638 -0.15554872155189514 3.097476005554199 0.48777222633361816 0.23358403146266937 0.3916764557361603 0.4428635537624359 0.11956485360860825 10.2499418258667 0.6247747540473938 0.164018452167511 0.2904793620109558 -0.15275178849697113 -0.5538971424102783 2.1933436393737793 -1.2049882411956787 -0.3156247138977051 -0.06765183806419373 -0.18798865377902985 0.1979873925447464 -66.16248321533203 10.379026412963867 -35.74040222167969 27.885278701782227 -33.89913558959961 -74.2039794921875 0.07573941349983215 20.167530059814453 -3.395437479019165 0.1190854087471962 -0.17941273748874664 0.33607032895088196 -0.2404184639453888 -0.040377870202064514 -0.4215862452983856 -0.29808300733566284 -0.35253554582595825 -0.009888172149658203 -7.799991130828857 5.440177917480469 -0.02779356576502323 0.06971819698810577 -0.059433713555336 -0.21766793727874756 -2.607389450073242 1.7615430355072021 -0.49742093682289124 -0.3388647437095642 0.00013401650357991457 0.12460736185312271 -10.086874961853027 0.377715140581131 -0.03832390904426575 0.37962859869003296 0.5711210370063782 -0.04764422029256821 -2.6304383277893066 -0.8561363220214844 0.3483192026615143 -0.2597157955169678 -0.5605654120445251 0.3947044014930725 -18.108238220214844 -28.155811309814453 -27.96532440185547 -2.192152976989746 75.8540267944336 4.094322204589844 -9.05611801147461 -19.858003616333008 -19.602445602416992 -0.1354411244392395 -0.18961571156978607 0.17211446166038513 66.67443084716797 -46.557491302490234 59.98350524902344 2.1457600593566895 72.21183776855469 -2.0641977787017822 0.8698412775993347 3.462094306945801 9.983667373657227
-10.929727461189032 60.315901041030884 -23.603530600667 -11.476326942443848 -49.86583709716797 13.465063095092773 1.7730222940444946 13.265471458435059 12.764691352844238 -0.7608928084373474 -12.645009994506836 3.3339388370513916 -0.9183731079101562 13.216958999633789 7.95463752746582 6.831274032592773 -23.252424240112305 17.919328689575195 -0.18766875565052032 -0.00525202602148056 0.24050666391849518 -0.0888984203338623 0.4168029725551605 -0.030627524480223656 0.23136071860790253 0.24204732477664948 -0.2466462254524231 74.8332290649414 83.04393005371094 -8.755967140197754 -27.71219825744629 -45.05168151855469 92.00869750976562 -34.56170654296875 -78.42365264892578 -42.04139709472656 -0.26044130325317383 -0.3598107695579529 0.24765317142009735 -0.2967298626899719 0.09635566920042038 0.020628923550248146 -0.5123440027236938 -0.014763953164219856 -0.16446007788181305 7.967308521270752 5.74066162109375 0.32699400186538696 -0.19748832285404205 0.007516543380916119 -0.1412598341703415 3.0928421020507812 0.5003488659858704 0.19787763059139252 0.4474245011806488 0.44323381781578064 0.2117091715335846 10.270116806030273 0.5126731991767883 0.15686962008476257 0.311746746301651 -0.1739412397146225 -0.5514585971832275 2.199348211288452 -1.2112030982971191 -0.2762848734855652 0.007071520667523146 -0.1845005452632904 0.11271505802869797 -65.7159652709961 9.945730209350586 -36.67184066772461 27.911161422729492 -34.47534942626953 -75.1147689819336 0.12252049893140793 20.08961296081543 -3.3631680011749268 -0.00331816915422678 -0.1442456692457199 0.3655643165111542 -0.24229054152965546 -0.02206522971391678 -0.45464709401130676 -0.3281169533729553 -0.348282128572464 0.015149611979722977 -7.789196014404297 5.441801071166992 -0.042107075452804565 0.1438562422990799 -0.11287527531385422 -0.22810354828834534 -2.643623113632202 1.7903389930725098 -0.44647273421287537 -0.3335387408733368 0.05236126109957695 0.1587805300951004 -10.088842391967773 0.38513749837875366 -0.045526161789894104 0.3856666386127472 0.555060625076294 -0.1267326921224594 -2.5970847606658936 -0.8578180074691772 0.39212748408317566 -0.33057230710983276 -0.5478302240371704 0.3642018139362335 -18.997840881347656 -28.701894760131836 -29.244583129882812 -2.5894365310668945 77.1298599243164 4.455272197723389 -9.202109336853027 -20.228832244873047 -19.55150032043457 -0.099809430539608 -0.20626799762248993 0.1757909208536148 68.52455139160156 -46.417510986328125 62.1300048828125 2.756868362426758 73.53700256347656 -2.57852840423584 0.9316573739051819 3.381624221801758 10.071602821350098
